PathFileType	4	(X/Y/Z)	/Users/niels/Desktop/University/Third Semester/Perception and Action/Exam/Gymnastics Motion Tracking/Code for Gym Tracking/Analyzed Data/Webcam_Backflip/id7_5_baseline_Sports2D/id7_5_baseline_Sports2D_px_person00.trc
DataRate	CameraRate	NumFrames	NumMarkers	Units	OrigDataRate	OrigDataStartFrame	OrigNumFrames
29.8125	29.8125	9	22	m	29.8125	0	160
Frame#	Time	Hip			RHip			RKnee			RAnkle			RBigToe			RSmallToe			RHeel			LHip			LKnee			LAnkle			LBigToe			LSmallToe			LHeel			Neck			Head			Nose			RShoulder			RElbow			RWrist			LShoulder			LElbow			LWrist		
		X1	Y1	Z1	X2	Y2	Z2	X3	Y3	Z3	X4	Y4	Z4	X5	Y5	Z5	X6	Y6	Z6	X7	Y7	Z7	X8	Y8	Z8	X9	Y9	Z9	X10	Y10	Z10	X11	Y11	Z11	X12	Y12	Z12	X13	Y13	Z13	X14	Y14	Z14	X15	Y15	Z15	X16	Y16	Z16	X17	Y17	Z17	X18	Y18	Z18	X19	Y19	Z19	X20	Y20	Z20	X21	Y21	Z21	X22	Y22	Z22
0	0.0	0.9343773001941779	-0.4897420550374716	0.0	0.932879888783425	-0.4882443373681307	0.0	0.9672741604196665	-0.59435110410488	0.0	0.9508061851798036	-0.7064466029036053	0.0	0.9910860719630947	-0.7318574824115633	0.0	0.9821111098890485	-0.7348307075055774	0.0	0.9433350427151874	-0.7213859479470057	0.0	0.9358646586571957	-0.485255697030081	0.0	0.964279042003164	-0.5928534033337797	0.0	0.9508002888500565	-0.7004664146580364	0.0	0.9896196911386739	-0.7213937335864897	0.0	0.9836520439917804	-0.7184128139867618	0.0	0.9373489776563777	-0.7109134006250466	0.0	0.9641798932339145	-0.3552771189586515	0.0	0.9984860310173851	-0.28806127298842304	0.0	1.0074847755051082	-0.32390709890512553	0.0	0.9567115919046704	-0.36274279532300735	0.0	0.8954356415262367	-0.379099102170358	0.0	0.8295911080268306	-0.3849807205517514	0.0	0.964190696891072	-0.36422318209060894	0.0	0.910267057668064	-0.37750318620731044	0.0	0.8474089105826633	-0.38484085813321417	0.0
1	0.03354297693920335	0.9324313409609348	-0.49800443044020687	0.0	0.9310735113105206	-0.4966942713959255	0.0	0.9700517307332831	-0.6005869762108046	0.0	0.9486310063194168	-0.7117836293973272	0.0	0.988669271871443	-0.7363913940635424	0.0	0.979528742812611	-0.7392019026486063	0.0	0.9396496394304635	-0.7267976256810987	0.0	0.9332794074230361	-0.4938837553942051	0.0	0.9657573948777739	-0.599478291602471	0.0	0.9496615165179751	-0.7042532275728902	0.0	0.9883511544135442	-0.7250800314072091	0.0	0.982799604077329	-0.7225210436419878	0.0	0.9367786088895148	-0.7163723343858742	0.0	0.9651407184425818	-0.3637976465729446	0.0	1.000978024836334	-0.2968551492990121	0.0	1.0083475376640492	-0.3332415118023709	0.0	0.9575989509467745	-0.37323116613680307	0.0	0.8970017189826353	-0.39579277966059356	0.0	0.8330478178196731	-0.40871416666192983	0.0	0.9606111490342553	-0.3718274643821288	0.0	0.9087427956352864	-0.38959076639267703	0.0	0.8495894774102181	-0.4055463402615276	0.0
2	0.0670859538784067	0.9300813644019134	-0.5080283676921197	0.0	0.928907960025625	-0.5069068994303865	0.0	0.9729066799187994	-0.6081267909356058	0.0	0.9464619324329787	-0.7180547510887259	0.0	0.9860672735719659	-0.741689863422521	0.0	0.9768022333062527	-0.7444422068990587	0.0	0.9361213503518964	-0.7330326130194735	0.0	0.9303681230772475	-0.5041771501206033	0.0	0.9674193180531319	-0.6070808939952379	0.0	0.948394588926117	-0.7092054903637255	0.0	0.9865463430286352	-0.7299861686716747	0.0	0.981387652091339	-0.7277774182768787	0.0	0.9358352808074951	-0.7226841801992955	0.0	0.9662155877152764	-0.3741021241155981	0.0	1.0030957879296087	-0.3075783781743981	0.0	1.0091718051466527	-0.34426282158100535	0.0	0.9588639810397066	-0.38559034313357454	0.0	0.8991617180298604	-0.4145964043853891	0.0	0.8377708601884933	-0.43526572520177464	0.0	0.9575299244529638	-0.3812376806924006	0.0	0.9072148924871761	-0.40254088313031355	0.0	0.8528902169721247	-0.42710979103021335	0.0
3	0.10062893081761004	0.9271090177761542	-0.521244320479585	0.0	0.9261871745895932	-0.5203021220471302	0.0	0.9756893751443939	-0.6180923994601446	0.0	0.9443771561525722	-0.7262123459405028	0.0	0.983396551278931	-0.7485630204688966	0.0	0.9740597657326662	-0.7514204020037822	0.0	0.9329952130665685	-0.7409685225663498	0.0	0.9270619545593559	-0.5175083987930507	0.0	0.9693490506606603	-0.6165961206102519	0.0	0.9469871456550243	-0.7164929438985455	0.0	0.9842239872906237	-0.7372420385170071	0.0	0.9793616456328876	-0.7352588917646923	0.0	0.9343066594120384	-0.7308337161621942	0.0	0.9674338458453522	-0.38752532141197293	0.0	1.0043480634866144	-0.3216394052844584	0.0	1.0098041366961963	-0.35816026896344444	0.0	0.9606564908449182	-0.40120547114306193	0.0	0.9026031323072466	-0.43691978174863977	0.0	0.8452731589789033	-0.466197917512509	0.0	0.9553459410907952	-0.3939240063394827	0.0	0.9060935852170834	-0.41702974220802075	0.0	0.8589077992733896	-0.44970173428907584	0.0
4	0.1341719077568134	0.9236013537436604	-0.5383466412247634	0.0	0.9229813453590764	-0.5375698581277971	0.0	0.9779944168509865	-0.6312263377159911	0.0	0.9425081244562618	-0.737172494653102	0.0	0.9810249286199441	-0.7578116516550123	0.0	0.9716349794954975	-0.7609107045021112	0.0	0.9305659603642604	-0.7514720426692354	0.0	0.9236258916960898	-0.5346148945826913	0.0	0.9714559302269503	-0.6288404908885459	0.0	0.9455868080872405	-0.7271309806423283	0.0	0.9820090445688382	-0.7476519230289569	0.0	0.9772480501196542	-0.7457644170369538	0.0	0.9323331463124356	-0.7417584649480256	0.0	0.9686682515005971	-0.40463715810641354	0.0	1.004243050388206	-0.3395681981493463	0.0	1.009985294157804	-0.3753411323326049	0.0	0.9627620310816991	-0.42060055720132034	0.0	0.9079731056657105	-0.4631979091893889	0.0	0.8571154959117866	-0.5014981248916451	0.0	0.9542304523638754	-0.41069564798374386	0.0	0.9058724629844953	-0.4335213247015078	0.0	0.8687022692852835	-0.47281106504723586	0.0
5	0.16771488469601675	0.9200029157893568	-0.55909798229408	0.0	0.9197015939392095	-0.5584812960069212	0.0	0.979260341249536	-0.6479127018515329	0.0	0.9409462304015401	-0.7517278238253314	0.0	0.9792916422116899	-0.7702192486594811	0.0	0.9698004095483639	-0.7736137421506981	0.0	0.9289977451340695	-0.7652832800558358	0.0	0.9205798825436251	-0.5554178894992206	0.0	0.9733728717710577	-0.6445425105269712	0.0	0.9443912442912038	-0.7418563911718395	0.0	0.9806325732087605	-0.7616321991557061	0.0	0.9757274028968475	-0.7597880116668416	0.0	0.9303773126316148	-0.7561503117145352	0.0	0.9695124308784617	-0.4251551404222204	0.0	1.0023743710881947	-0.36089251671121547	0.0	1.0093074424464363	-0.395417903787291	0.0	0.9645855451315901	-0.4433059129731149	0.0	0.9157714456122465	-0.49272089408194975	0.0	0.874676379874882	-0.5394459503526391	0.0	0.953943781359747	-0.43148869750778157	0.0	0.9070006929897136	-0.4525751729925119	0.0	0.8821426415281012	-0.49615559678503335	0.0
6	0.20125786163522008	0.9169612109044168	-0.5823279927365965	0.0	0.9169763373790611	-0.5818666255241369	0.0	0.9789889098712681	-0.6680874851093919	0.0	0.9397014807087878	-0.7700784166489683	0.0	0.9782858101220073	-0.7861694322819436	0.0	0.9685923355208035	-0.789857421190363	0.0	0.9281917691054417	-0.7825637363907265	0.0	0.9184617340834965	-0.5789126168948836	0.0	0.9744320514757855	-0.6640480151535592	0.0	0.9434381884515738	-0.7607920619405802	0.0	0.9803233887087303	-0.7790511775618129	0.0	0.975096230325248	-0.7773315725455189	0.0	0.9288186271316147	-0.7741236707029551	0.0	0.9693044451789156	-0.44792608567564823	0.0	0.9984804045869358	-0.3841644516387799	0.0	1.0072443130691442	-0.41725649030784334	0.0	0.9653590943710093	-0.467908432347436	0.0	0.926205391776624	-0.523542575684955	0.0	0.898667726565331	-0.5766479219671277	0.0	0.9538276320898927	-0.45518995574804416	0.0	0.9100969502156652	-0.47465338764675274	0.0	0.8985426633171734	-0.5199585174702962	0.0
7	0.23480083857442344	0.9150699404983001	-0.6061344215933709	0.0	0.9153708073575211	-0.6058293753086105	0.0	0.9769790745822505	-0.6909275327817274	0.0	0.9386855280498527	-0.7912576271490097	0.0	0.9778721317453033	-0.8050503175473921	0.0	0.9678976648630969	-0.8090634725238067	0.0	0.9277811548821299	-0.8024218186088782	0.0	0.9176003474008343	-0.6032373394607009	0.0	0.9739002392219274	-0.6867355248590036	0.0	0.9425218443976747	-0.7829215842985108	0.0	0.9806081398473736	-0.7989147549433657	0.0	0.9750519560648219	-0.7974619269918727	0.0	0.9275695482336803	-0.7948006732123563	0.0	0.9673587873834897	-0.47100619877332567	0.0	0.9923258571646717	-0.4071639075954902	0.0	1.0032605260744043	-0.4390334620609716	0.0	0.9644380895205863	-0.49226640267568167	0.0	0.9390458326804993	-0.5525015586961725	0.0	0.9285305255920653	-0.6082137362309546	0.0	0.9530257151239752	-0.4796671307644095	0.0	0.9162854356228031	-0.4992896713418663	0.0	0.9180539055641738	-0.5433601822367127	0.0
8	0.2683438155136268	0.9147068156628674	-0.6281588685961984	0.0	0.9152059076649267	-0.6280280176345895	0.0	0.973475490126049	-0.7145082574145094	0.0	0.9377154409649943	-0.8130644886740435	0.0	0.9778460817378386	-0.825090710942383	0.0	0.9676181323302537	-0.8295370362276159	0.0	0.9272709500518125	-0.8229146190411846	0.0	0.918085950834594	-0.625936583488175	0.0	0.9715330471813473	-0.7105990413887439	0.0	0.9413857684637813	-0.8058873215981367	0.0	0.9807076537947895	-0.8193111148205844	0.0	0.9749577611498269	-0.8181690011953615	0.0	0.9262358292572493	-0.816170905091449	0.0	0.9632667081161549	-0.49189081273891827	0.0	0.9835417193061866	-0.42729505685162356	0.0	0.9969589685771216	-0.4584011598257464	0.0	0.9615047961872164	-0.5137584027865169	0.0	0.9534725058367373	-0.5754137836199021	0.0	0.9619573094464392	-0.6282659762039837	0.0	0.9508270674877692	-0.5021070101447836	0.0	0.9268418267382112	-0.524262987010955	0.0	0.9416756969783062	-0.5631957119856338	0.0
